<svg width="80" height="80" viewBox="0 0 80 80" fill="none" xmlns="http://www.w3.org/2000/svg">
  <path
    d="M27.5 17.5H20C18.6193 17.5 17.5 18.6193 17.5 20V60C17.5 61.3807 18.6193 62.5 20 62.5H27.5C28.8807 62.5 30 61.3807 30 60V20C30 18.6193 28.8807 17.5 27.5 17.5Z"
    stroke="#FBA94C" stroke-width="2" stroke-linecap="round" stroke-linejoin="round" />
  <path
    d="M60 17.5H52.5C51.1193 17.5 50 18.6193 50 20V60C50 61.3807 51.1193 62.5 52.5 62.5H60C61.3807 62.5 62.5 61.3807 62.5 60V20C62.5 18.6193 61.3807 17.5 60 17.5Z"
    stroke="#FBA94C" stroke-width="2" stroke-linecap="round" stroke-linejoin="round" />
  <path
    d="M62.5 25H70C70.663 25 71.2989 25.2634 71.7678 25.7322C72.2366 26.2011 72.5 26.837 72.5 27.5V52.5C72.5 53.163 72.2366 53.7989 71.7678 54.2678C71.2989 54.7366 70.663 55 70 55H62.5"
    stroke="#FBA94C" stroke-width="2" stroke-linecap="round" stroke-linejoin="round" />
  <path
    d="M17.5 55H10C9.33696 55 8.70107 54.7366 8.23223 54.2678C7.76339 53.7989 7.5 53.163 7.5 52.5V27.5C7.5 26.837 7.76339 26.2011 8.23223 25.7322C8.70107 25.2634 9.33696 25 10 25H17.5"
    stroke="#FBA94C" stroke-width="2" stroke-linecap="round" stroke-linejoin="round" />
  <path d="M30 40H50" stroke="#FBA94C" stroke-width="2" stroke-linecap="round" stroke-linejoin="round" />
  <path d="M72.5 40H77.5" stroke="#FBA94C" stroke-width="2" stroke-linecap="round" stroke-linejoin="round" />
  <path d="M2.5 40H7.5" stroke="#FBA94C" stroke-width="2" stroke-linecap="round" stroke-linejoin="round" />
</svg>